<svg xmlns="http://www.w3.org/2000/svg" xmlns:xlink="http://www.w3.org/1999/xlink" viewBox="-1 186 112 112">
  <defs>
    <linearGradient id="a">
      <stop offset=".5" stop-color="#a60c0c"/>
      <stop offset=".5" stop-color="#f35959"/>
    </linearGradient>
    <linearGradient xlink:href="#a" id="b" x1="95" x2="15" y1="280" y2="202" gradientUnits="userSpaceOnUse"/>
  </defs>
  <circle cx="55" cy="242" r="55" fill="url(#b)"/>
  <circle cx="55" cy="242" r="45" fill="#ed1212"/>
  <circle cx="16.2" cy="242" r="13.9" stroke="#bd0f0f" stroke-linejoin="bevel" stroke-width="4.5"/>
  <circle cx="55" cy="203.2" r="14" stroke="#bd0f0f" stroke-linejoin="bevel" stroke-width="4.5"/>
  <circle cx="93.8" cy="242" r="14" stroke="#bd0f0f" stroke-linejoin="bevel" stroke-width="4.5"/>
  <circle cx="55" cy="280.8" r="14" stroke="#bd0f0f" stroke-linejoin="bevel" stroke-width="4.5"/>
  <path d="M40 237h10v-10h10v10h10v10H60v10H50v-10H40Zm-10 0h5v10h-5zm45 0h5v10h-5zm-15-20v5H50v-5zm0 45v5H50v-5z"/>
  <circle cx="55" cy="242" r="15" fill="none" stroke="#ed1212" stroke-linejoin="bevel" stroke-width="4.5"/>
  <circle cx="55" cy="242" r="55" fill="none" stroke="#303030" stroke-linejoin="bevel" stroke-width="2"/>
</svg>
