<svg xmlns="http://www.w3.org/2000/svg" id="svg3558" version="1.1" viewBox="16 16 279 429"><g id="g3558" clip-path="url(#clip_1)"><path id="background" d="M279 17H33v76H17v277h15v67h248v-67h15V93h-16z"/><path id="body" fill="#fff" fill-opacity="1" stroke="#303030" stroke-linejoin="bevel" stroke-opacity="1" d="M20 95v272h15v67h242v-67h15V95h-15V20H35v75z"/><path id="body-bottom" fill="#cdcdcd" d="M35 382h242v52H35Z"/><path id="ui-led" fill="#6dbd46" d="M208 270.5V266l-35-35h-13v-37h-8v37h-13l-35 35v4.5h-8c-10 0-19.281 11.5-19.281 21.5S86 312.5 96 312.5h8v5.5l35 35h34l35-35v-5.5h9c10 0 18.813-10.5 18.813-20.5S227 270.5 217 270.5"/><path id="ui-button-left" fill="#cdcdcd" fill-opacity="1" stroke="#303030" stroke-linecap="butt" stroke-linejoin="miter" stroke-miterlimit="1" stroke-width="1" d="M96 274.5c-9 0-15 8.5-15 17.5 0 8 6 16.5 15 16.5h24.11a1.89 1.89 135 0 0 1.89-1.89v-30.22a1.89 1.89 45 0 0-1.89-1.89Z"/><path id="ui-button-right" fill="#cdcdcd" fill-opacity="1" stroke="#303030" stroke-linecap="butt" stroke-linejoin="miter" stroke-miterlimit="1" stroke-width="1" d="M191.89 308.5H217c8 0 15-8.5 15-16.5 0-9-7-17.5-15-17.5h-25.11a1.89 1.89 135 0 0-1.89 1.89v30.22a1.89 1.89 45 0 0 1.89 1.89z"/><path id="ui-button-ok" fill="#666766" fill-opacity="1" stroke="#303030" stroke-linecap="butt" stroke-linejoin="miter" stroke-miterlimit="1" stroke-width="1" d="M171.11 274.5h-30.22a1.89 1.89 135 0 0-1.89 1.89v30.22a1.89 1.89 45 0 0 1.89 1.89h30.22a1.89 1.89 135 0 0 1.89-1.89v-30.22a1.89 1.89 45 0 0-1.89-1.89Z"/><path id="ui-button-up" fill="#cdcdcd" fill-opacity="1" stroke="#303030" stroke-linecap="butt" stroke-linejoin="miter" stroke-miterlimit="1" stroke-width="1" d="M168.61 238h-25.22a4.56 4.56 157.5 0 0-3.226 1.336l-21.328 21.328a1.89 1.89 90 0 0 0 2.672l5.828 5.828A4.56 4.56 67.5 0 1 126 272.39v13.72a1.89 1.89 45 0 0 1.89 1.89h5.22a1.89 1.89 135 0 0 1.89-1.89v-9.94a5.67 5.67 135 0 1 5.67-5.67h30.66a5.67 5.67 45 0 1 5.67 5.67v9.94a1.89 1.89 45 0 0 1.89 1.89h5.22a1.89 1.89 135 0 0 1.89-1.89v-13.72a4.56 4.56 112.5 0 1 1.336-3.226l5.828-5.828a1.89 1.89 90 0 0 0-2.672l-21.328-21.328A4.56 4.56 22.5 0 0 168.61 238Z"/><path id="ui-button-down" fill="#cdcdcd" fill-opacity="1" stroke="#303030" stroke-linecap="butt" stroke-linejoin="miter" stroke-miterlimit="1" stroke-width="1" d="M143.39 346h25.22a4.56 4.56 157.5 0 0 3.226-1.336l21.328-21.328a1.89 1.89 90 0 0 0-2.672l-5.828-5.828A4.56 4.56 67.5 0 1 186 311.61v-14.72a1.89 1.89 45 0 0-1.89-1.89h-5.22a1.89 1.89 135 0 0-1.89 1.89v9.94a5.67 5.67 135 0 1-5.67 5.67h-30.66a5.67 5.67 45 0 1-5.67-5.67v-9.94a1.89 1.89 45 0 0-1.89-1.89h-5.22a1.89 1.89 135 0 0-1.89 1.89v14.72a4.56 4.56 112.5 0 1-1.336 3.226l-5.828 5.828a1.89 1.89 90 0 0 0 2.672l21.328 21.328A4.56 4.56 22.5 0 0 143.39 346Z"/><path id="display-body" fill="#cdcdcd" stroke="#303030" stroke-opacity="1" d="M277 216H35V20h242z"/><path id="display-body-corner-t" fill="#b9b9b9" d="M35 20h242v8H35Z"/><path id="display-body-corner-b" fill="#bababa" stroke-width="1.438" d="M277 216H35v-10h242z"/><path id="body-corner-b" fill="#b9b9b9" d="M277 434H35v-7h242z"/><path id="body-corner-br" fill="#e6e6e6" d="M292 367h-15v-8h15Z"/><path id="body-corner-bl" fill="#e6e6e6" d="M35 367H20v-8h15Z"/><path id="body-corner-tl" fill="#e6e6e6" d="M20 95h15v8H20Z"/><path id="body-corner-tr" fill="#e6e6e6" d="M277 95h15v8h-15Z"/><path id="ui-button-back" fill="#cdcdcd" stroke="#303030" stroke-opacity="1" d="M54 216v26.11a1.89 1.89 45 0 0 1.89 1.89h37.22a4.56 4.56 157.5 0 0 3.226-1.336l11.328-11.328A4.56 4.56 112.5 0 0 109 228.11V216Z"/><path id="display-frame" stroke="#303030" stroke-opacity="1" d="M50 54.56v114.88a7.56 7.56 45 0 0 7.56 7.56H152v39h8v-39h94.44a7.56 7.56 135 0 0 7.56-7.56V54.56a7.56 7.56 45 0 0-7.56-7.56H57.56A7.56 7.56 135 0 0 50 54.56Z"/><path id="display" fill="#bfd7ca" stroke="#303030" stroke-opacity="1" d="M236.22 170H76.78a3.78 3.78 45 0 1-3.78-3.78V59.78A3.78 3.78 135 0 1 76.78 56h159.44a3.78 3.78 45 0 1 3.78 3.78v106.44a3.78 3.78 135 0 1-3.78 3.78Z"/><path id="logo-E" fill="#fff" fill-opacity="1" stroke="#7f7f7f" stroke-linecap="butt" stroke-linejoin="bevel" stroke-miterlimit="1" stroke-width="1" d="M53 396v18h17v-4H57v-3h13v-4H57v-3h13v-4z"/><path id="logo-V" fill="#fff" fill-opacity="1" stroke="#7f7f7f" stroke-linecap="butt" stroke-linejoin="miter" stroke-miterlimit="1" stroke-width="1" d="M89.6 396 84 407h-1l-5.707-11H72l9.5 18h4l9.5-18Z"/><path id="logo-3" fill="#fff" fill-opacity="1" stroke="#7f7f7f" stroke-linecap="butt" stroke-linejoin="miter" stroke-miterlimit="1" stroke-width="1" d="M101 410v-1h-4v5h17v-18H97v5h4v-1h9v3h-6v4h6v3z"/><path id="logo-lego" fill="#ed1c24" stroke="#000" stroke-linejoin="bevel" stroke-opacity="1" d="M262 419h-29v-29h29Z"/><path id="body-overlay" fill="none" fill-opacity="1" stroke="#303030" stroke-linejoin="bevel" stroke-opacity="1" d="M20 95v272h15v67h242v-67h15V95h-15V20H35v75z"/><path id="display-body-overlay" fill="none" stroke="#303030" stroke-opacity="1" d="M277 216H35V20h242z"/></g></svg>