<svg xmlns="http://www.w3.org/2000/svg" viewBox="-12 -12 24 24" aria-hidden="true">
  <path d="M 3,2 V -2 A 1,1 45 0 0 2,-3 h -4 a 1,1 135 0 0 -1,1 v 4 a 1,1 45 0 0 1,1 H 2 A 1,1 135 0 0 3,2 Z" fill="none" stroke="#d4d4d4" stroke-width="1" stroke-linecap="round" stroke-linejoin="round" />
  <path d="M 5,4 V 1 h 6 a 1.24,1.24 67.5 0 1 0.88,2.12 L 4,11 H -4 L -11.88,3.12 A 1.24,1.24 112.5 0 1 -11,1 h 6 v 3 a 1,1 45 0 0 1,1 H 4 A 1,1 135 0 0 5,4 Z" fill="none" stroke="#d4d4d4" stroke-width="1" stroke-linecap="round" stroke-linejoin="round" />
  <path d="m 5,-4 v 3 h 6 a 1.24,1.24 112.5 0 0 0.88,-2.12 L 4,-11 h -8 l -7.88,7.88 A 1.24,1.24 67.5 0 0 -11,-1 h 6 v -3 a 1,1 135 0 1 1,-1 h 8 a 1,1 45 0 1 1,1 z" fill="none" stroke="#d4d4d4" stroke-width="1" stroke-linecap="round" stroke-linejoin="round" />
</svg>
